<svg width="22" height="22" viewBox="0 0 22 22" fill="none" xmlns="http://www.w3.org/2000/svg">
<path fill-rule="evenodd" clip-rule="evenodd" d="M9.27924 2.75C9.23432 2.74987 9.18982 2.75862 9.1483 2.77575C9.10678 2.79287 9.06906 2.81804 9.0373 2.8498C9.00554 2.88156 8.98037 2.91929 8.96324 2.96081C8.94611 3.00233 8.93737 3.04683 8.9375 3.09174L8.9375 3.09375V4.125H13.0625V3.09375L13.0625 3.09174C13.0626 3.04683 13.0539 3.00233 13.0368 2.96081C13.0196 2.91928 12.9945 2.88156 12.9627 2.8498C12.9309 2.81804 12.8932 2.79288 12.8517 2.77575C12.8102 2.75862 12.7657 2.74987 12.7208 2.75L12.7188 2.75H9.28125L9.27924 2.75ZM5.54431 5.5L6.35804 18.5196C6.35819 18.5222 6.35834 18.5247 6.35847 18.5272C6.38224 18.9899 6.68943 19.25 7.04688 19.25H14.9531C15.307 19.25 15.6129 18.9957 15.6419 18.5206L16.4557 5.5H5.54431ZM17.1812 4.125H14.4375V3.09477C14.438 2.86895 14.394 2.64524 14.3079 2.43648C14.2216 2.22741 14.0949 2.03745 13.935 1.87753C13.7751 1.71761 13.5851 1.59088 13.376 1.50464C13.1673 1.41855 12.9436 1.37449 12.7179 1.375H9.28213C9.05635 1.37449 8.8327 1.41855 8.62397 1.50464C8.4149 1.59088 8.22494 1.71761 8.06502 1.87753C7.90511 2.03745 7.77838 2.22741 7.69214 2.43648C7.60604 2.6452 7.56199 2.86886 7.5625 3.09463V4.125H4.81885C4.81506 4.12497 4.81127 4.12497 4.80747 4.125H3.4375C3.0578 4.125 2.75 4.43281 2.75 4.8125C2.75 5.1922 3.0578 5.5 3.4375 5.5H4.16663L4.9855 18.6019C5.04522 19.7263 5.89323 20.625 7.04688 20.625H14.9531C16.1177 20.625 16.9462 19.7183 17.0143 18.6046C17.0143 18.6045 17.0143 18.6045 17.0143 18.6044L17.8334 5.5H18.5625C18.9422 5.5 19.25 5.1922 19.25 4.8125C19.25 4.43281 18.9422 4.125 18.5625 4.125H17.1925C17.1887 4.12497 17.1849 4.12497 17.1812 4.125ZM7.88171 6.87544C8.26117 6.86189 8.57976 7.15851 8.59331 7.53797L8.93706 17.163C8.95061 17.5424 8.65399 17.861 8.27454 17.8746C7.89508 17.8881 7.57649 17.5915 7.56294 17.212L7.21919 7.58704C7.20564 7.20759 7.50226 6.88899 7.88171 6.87544ZM14.1183 6.87544C14.4977 6.88899 14.7944 7.20759 14.7808 7.58704L14.4371 17.212C14.4235 17.5915 14.1049 17.8881 13.7255 17.8746C13.346 17.861 13.0494 17.5424 13.0629 17.163L13.4067 7.53797C13.4202 7.15851 13.7388 6.86189 14.1183 6.87544ZM11 6.875C11.3797 6.875 11.6875 7.18281 11.6875 7.5625V17.1875C11.6875 17.5672 11.3797 17.875 11 17.875C10.6203 17.875 10.3125 17.5672 10.3125 17.1875V7.5625C10.3125 7.18281 10.6203 6.875 11 6.875Z" fill="#8493B2"/>
</svg>
